<svg viewBox="0 0 32 32" fill="none" xmlns="http://www.w3.org/2000/svg">
  <defs>
    <linearGradient id="bgGradient" x1="0%" y1="0%" x2="100%" y2="100%">
      <stop offset="0%" style="stop-color:#00853F"/>
      <stop offset="100%" style="stop-color:#065F46"/>
    </linearGradient>
  </defs>
  
  <!-- Background vert Senegal -->
  <rect width="32" height="32" rx="6" fill="url(#bgGradient)"/>
  
  <!-- Bande tricolore en haut -->
  <rect x="0" y="0" width="10.67" height="2" rx="0" fill="#00853F"/>
  <rect x="10.67" y="0" width="10.67" height="2" rx="0" fill="#FDEF42"/>
  <rect x="21.33" y="0" width="10.67" height="2" rx="0" fill="#E31B23"/>
  
  <!-- QR Pattern -->
  <rect x="4" y="5" width="9" height="9" rx="1.5" fill="white" fill-opacity="0.95"/>
  <rect x="6" y="7" width="5" height="5" rx="0.5" fill="#00853F"/>
  
  <rect x="19" y="5" width="9" height="9" rx="1.5" fill="white" fill-opacity="0.95"/>
  <rect x="21" y="7" width="5" height="5" rx="0.5" fill="#00853F"/>
  
  <rect x="4" y="18" width="9" height="9" rx="1.5" fill="white" fill-opacity="0.95"/>
  <rect x="6" y="20" width="5" height="5" rx="0.5" fill="#00853F"/>
  
  <!-- Etoile senegalaise (5 branches) -->
  <path d="M23.5 17l1.1 3.4 3.4 0-2.75 2 1.05 3.25-2.8-2.05-2.8 2.05 1.05-3.25-2.75-2 3.4 0z" fill="#FDEF42"/>
</svg>
